<?xml version="1.0" encoding="UTF-8" standalone="no"?>
<!-- Created with Inkscape (http://www.inkscape.org/) -->

<svg
   xmlns:dc="http://purl.org/dc/elements/1.1/"
   xmlns:cc="http://creativecommons.org/ns#"
   xmlns:rdf="http://www.w3.org/1999/02/22-rdf-syntax-ns#"
   xmlns:svg="http://www.w3.org/2000/svg"
   xmlns="http://www.w3.org/2000/svg"
   xmlns:sodipodi="http://sodipodi.sourceforge.net/DTD/sodipodi-0.dtd"
   xmlns:inkscape="http://www.inkscape.org/namespaces/inkscape"
   width="48"
   height="48"
   viewBox="0 0 12.7 12.7"
   version="1.1"
   id="svg8"
   inkscape:version="0.92.5 (2060ec1f9f, 2020-04-08)"
   sodipodi:docname="favicon.svg">
  <defs
     id="defs2" />
  <sodipodi:namedview
     id="base"
     pagecolor="#ffffff"
     bordercolor="#666666"
     borderopacity="1.0"
     inkscape:pageopacity="0.0"
     inkscape:pageshadow="2"
     inkscape:zoom="11.2"
     inkscape:cx="43.41121"
     inkscape:cy="21.149602"
     inkscape:document-units="mm"
     inkscape:current-layer="layer1"
     showgrid="true"
     units="px"
     inkscape:window-width="1920"
     inkscape:window-height="986"
     inkscape:window-x="0"
     inkscape:window-y="30"
     inkscape:window-maximized="1">
    <inkscape:grid
       type="xygrid"
       id="grid4522" />
  </sodipodi:namedview>
  <metadata
     id="metadata5">
    <rdf:RDF>
      <cc:Work
         rdf:about="">
        <dc:format>image/svg+xml</dc:format>
        <dc:type
           rdf:resource="http://purl.org/dc/dcmitype/StillImage" />
        <dc:title></dc:title>
      </cc:Work>
    </rdf:RDF>
  </metadata>
  <g
     inkscape:label="Layer 1"
     inkscape:groupmode="layer"
     id="layer1"
     transform="translate(0,-284.3)">
    <g
       aria-label="∅"
       style="font-style:normal;font-weight:normal;font-size:22.93087959px;line-height:1.25;font-family:sans-serif;letter-spacing:0px;word-spacing:0px;fill:#9c5518;fill-opacity:1;stroke:none;stroke-width:0.26458329"
       id="text4520">
      <path
         d="m 0.26458345,295.62695 1.31001605,-1.31001 q -0.2575245,-0.32471 -0.4814589,-0.7054 -0.22393435,-0.39188 -0.39188513,-0.83975 -0.16795078,-0.45907 -0.26872124,-0.98531 -0.10077047,-0.52625 -0.10077047,-1.14207 0,-2.49687 1.75788484,-4.25475 1.7802782,-1.78028 4.254753,-1.78028 0.6158195,0 1.1420653,0.10077 0.5374425,0.10077 0.9853112,0.27992 0.4590655,0.17915 0.8397539,0.41428 0.3806885,0.22393 0.705393,0.47026 l 1.310016,-1.31002 1.108476,1.10848 -1.321213,1.32121 q 0.503852,0.62702 0.862147,1.52276 0.369492,0.89573 0.369492,2.11618 0,2.49686 -1.757885,4.25475 -0.8397539,0.83975 -1.9034422,1.31001 -1.0636883,0.45907 -2.3625076,0.45907 -0.6046228,0 -1.1308686,-0.10077 -0.5262458,-0.10077 -0.9741145,-0.26872 -0.4478687,-0.16795 -0.8285572,-0.39189 -0.3806884,-0.22393 -0.6941965,-0.48146 l -1.3212128,1.32122 z m 8.62147325,-8.62147 q -0.2015409,-0.14556 -0.4030818,-0.25753 -0.201541,-0.12316 -0.4478688,-0.22393 -0.794967,-0.3359 -1.668311,-0.3359 -0.8733441,0 -1.7019013,0.3359 -0.8173604,0.3247 -1.4667701,0.96292 -0.6718031,0.6718 -0.9853112,1.50036 -0.3023114,0.81736 -0.3023114,1.6907 0,0.88454 0.3135081,1.65712 0.089574,0.22393 0.2127376,0.43667 0.123164,0.21274 0.2687213,0.41428 z m -2.5752452,8.08403 q 0.873344,0 1.7019012,-0.32471 0.8285572,-0.3359 1.4667701,-0.97411 0.6606062,-0.66061 0.9741142,-1.47797 0.313508,-0.81736 0.313508,-1.6907 0,-0.42548 -0.07838,-0.85095 -0.07838,-0.43667 -0.235131,-0.82856 -0.07838,-0.19034 -0.201541,-0.41428 -0.123164,-0.23513 -0.2575241,-0.41428 l -6.1805887,6.18059 q 0.1903442,0.14556 0.4142786,0.26872 0.2239344,0.11197 0.4030819,0.19035 0.3918851,0.16795 0.8173604,0.25752 0.4366721,0.0784 0.8621474,0.0784 z"
         style="font-style:normal;font-variant:normal;font-weight:normal;font-stretch:normal;font-size:22.93087959px;font-family:Hack;-inkscape-font-specification:'Hack, Normal';font-variant-ligatures:normal;font-variant-caps:normal;font-variant-numeric:normal;font-feature-settings:normal;text-align:start;writing-mode:lr-tb;text-anchor:start;fill:#9c5518;fill-opacity:1;stroke-width:0.26458329"
         id="path4562" />
    </g>
  </g>
</svg>
